<mxfile host="app.diagrams.net" modified="2023-05-10T13:10:17.461Z" agent="Mozilla/5.0 (Macintosh; Intel Mac OS X 10_15_7) AppleWebKit/537.36 (KHTML, like Gecko) Chrome/112.0.0.0 Safari/537.36" etag="-omNKUBu2RXs1FWcXx8A" version="21.2.9" type="google">
  <diagram id="C5RBs43oDa-KdzZeNtuy" name="Page-1">
    <mxGraphModel grid="1" page="1" gridSize="10" guides="1" tooltips="1" connect="1" arrows="1" fold="1" pageScale="1" pageWidth="827" pageHeight="1169" math="0" shadow="0">
      <root>
        <mxCell id="WIyWlLk6GJQsqaUBKTNV-0" />
        <mxCell id="WIyWlLk6GJQsqaUBKTNV-1" parent="WIyWlLk6GJQsqaUBKTNV-0" />
        <mxCell id="yKNC7z61OmB0n62xCrWY-0" value="마감된 채용정보 내역 조회" style="shape=umlFrame;whiteSpace=wrap;html=1;pointerEvents=0;width=140;height=20;" vertex="1" parent="WIyWlLk6GJQsqaUBKTNV-1">
          <mxGeometry x="-1070" y="50" width="900" height="370" as="geometry" />
        </mxCell>
        <mxCell id="yKNC7z61OmB0n62xCrWY-1" value=":CompanyMember" style="shape=umlActor;verticalLabelPosition=bottom;verticalAlign=top;html=1;" vertex="1" parent="WIyWlLk6GJQsqaUBKTNV-1">
          <mxGeometry x="-1030" y="100" width="30" height="60" as="geometry" />
        </mxCell>
        <mxCell id="Yd6PEO3AKcgouXDyCz7K-3" value=":ShowClosedJobPostings" style="html=1;" vertex="1" parent="WIyWlLk6GJQsqaUBKTNV-1">
          <mxGeometry x="-580" y="100" width="150" height="50" as="geometry" />
        </mxCell>
        <mxCell id="Yd6PEO3AKcgouXDyCz7K-4" value=":&amp;nbsp;ShowClosedJobPostings&lt;br&gt;UI" style="html=1;" vertex="1" parent="WIyWlLk6GJQsqaUBKTNV-1">
          <mxGeometry x="-890" y="100" width="150" height="50" as="geometry" />
        </mxCell>
        <mxCell id="Yd6PEO3AKcgouXDyCz7K-5" value="" style="endArrow=none;html=1;rounded=0;" edge="1" parent="WIyWlLk6GJQsqaUBKTNV-1" source="yKNC7z61OmB0n62xCrWY-1">
          <mxGeometry width="50" height="50" relative="1" as="geometry">
            <mxPoint x="-270" y="400" as="sourcePoint" />
            <mxPoint x="-890" y="130" as="targetPoint" />
            <Array as="points">
              <mxPoint x="-920" y="130" />
            </Array>
          </mxGeometry>
        </mxCell>
        <mxCell id="Yd6PEO3AKcgouXDyCz7K-7" value="" style="endArrow=none;html=1;rounded=0;exitX=1;exitY=0.5;exitDx=0;exitDy=0;entryX=0;entryY=0.5;entryDx=0;entryDy=0;" edge="1" parent="WIyWlLk6GJQsqaUBKTNV-1" source="Yd6PEO3AKcgouXDyCz7K-4" target="Yd6PEO3AKcgouXDyCz7K-3">
          <mxGeometry width="50" height="50" relative="1" as="geometry">
            <mxPoint x="-270" y="400" as="sourcePoint" />
            <mxPoint x="-220" y="350" as="targetPoint" />
          </mxGeometry>
        </mxCell>
        <mxCell id="Yd6PEO3AKcgouXDyCz7K-11" value="" style="endArrow=none;html=1;rounded=0;entryX=1;entryY=0.5;entryDx=0;entryDy=0;exitX=0;exitY=0.5;exitDx=0;exitDy=0;" edge="1" parent="WIyWlLk6GJQsqaUBKTNV-1" source="Yd6PEO3AKcgouXDyCz7K-14" target="Yd6PEO3AKcgouXDyCz7K-108">
          <mxGeometry width="50" height="50" relative="1" as="geometry">
            <mxPoint x="-655.0000000000005" y="240" as="sourcePoint" />
            <mxPoint x="-220" y="420" as="targetPoint" />
          </mxGeometry>
        </mxCell>
        <mxCell id="Yd6PEO3AKcgouXDyCz7K-14" value=":JobPosting" style="html=1;" vertex="1" parent="WIyWlLk6GJQsqaUBKTNV-1">
          <mxGeometry x="-473" y="240" width="110" height="50" as="geometry" />
        </mxCell>
        <mxCell id="Yd6PEO3AKcgouXDyCz7K-15" value="1.1.1*[For all company member&#39;s closed job postings]: getTask()" style="text;html=1;strokeColor=none;fillColor=none;align=center;verticalAlign=middle;whiteSpace=wrap;rounded=0;" vertex="1" parent="WIyWlLk6GJQsqaUBKTNV-1">
          <mxGeometry x="-645" y="300" width="300" height="30" as="geometry" />
        </mxCell>
        <mxCell id="Yd6PEO3AKcgouXDyCz7K-16" value="1.1.2 *[For all company member&#39;s closed job postings]: getDeadline()" style="text;html=1;strokeColor=none;fillColor=none;align=center;verticalAlign=middle;whiteSpace=wrap;rounded=0;" vertex="1" parent="WIyWlLk6GJQsqaUBKTNV-1">
          <mxGeometry x="-660" y="330" width="300" height="30" as="geometry" />
        </mxCell>
        <mxCell id="Yd6PEO3AKcgouXDyCz7K-18" value="" style="endArrow=classic;html=1;rounded=0;" edge="1" parent="WIyWlLk6GJQsqaUBKTNV-1">
          <mxGeometry width="50" height="50" relative="1" as="geometry">
            <mxPoint x="-570" y="278" as="sourcePoint" />
            <mxPoint x="-490" y="278" as="targetPoint" />
          </mxGeometry>
        </mxCell>
        <mxCell id="Yd6PEO3AKcgouXDyCz7K-21" value="채용정보 통계 보기" style="shape=umlFrame;whiteSpace=wrap;html=1;pointerEvents=0;width=110;height=20;" vertex="1" parent="WIyWlLk6GJQsqaUBKTNV-1">
          <mxGeometry x="-1080" y="510" width="930" height="380" as="geometry" />
        </mxCell>
        <mxCell id="Yd6PEO3AKcgouXDyCz7K-22" value="&lt;br&gt;:Company&lt;br&gt;Member" style="shape=umlActor;verticalLabelPosition=bottom;verticalAlign=top;html=1;" vertex="1" parent="WIyWlLk6GJQsqaUBKTNV-1">
          <mxGeometry x="-1000" y="555" width="30" height="60" as="geometry" />
        </mxCell>
        <mxCell id="Yd6PEO3AKcgouXDyCz7K-23" value=":ShowJobPostingStatistics" style="html=1;" vertex="1" parent="WIyWlLk6GJQsqaUBKTNV-1">
          <mxGeometry x="-585" y="560" width="150" height="50" as="geometry" />
        </mxCell>
        <mxCell id="Yd6PEO3AKcgouXDyCz7K-24" value=":ShowJobPostingStatistics&lt;br&gt;UI" style="html=1;" vertex="1" parent="WIyWlLk6GJQsqaUBKTNV-1">
          <mxGeometry x="-900" y="560" width="150" height="50" as="geometry" />
        </mxCell>
        <mxCell id="Yd6PEO3AKcgouXDyCz7K-25" value="" style="endArrow=none;html=1;rounded=0;" edge="1" parent="WIyWlLk6GJQsqaUBKTNV-1">
          <mxGeometry width="50" height="50" relative="1" as="geometry">
            <mxPoint x="-980" y="583" as="sourcePoint" />
            <mxPoint x="-900" y="583" as="targetPoint" />
            <Array as="points">
              <mxPoint x="-930" y="583" />
            </Array>
          </mxGeometry>
        </mxCell>
        <mxCell id="Yd6PEO3AKcgouXDyCz7K-26" value="" style="endArrow=none;html=1;rounded=0;exitX=1;exitY=0.5;exitDx=0;exitDy=0;entryX=0;entryY=0.5;entryDx=0;entryDy=0;" edge="1" parent="WIyWlLk6GJQsqaUBKTNV-1" target="Yd6PEO3AKcgouXDyCz7K-23">
          <mxGeometry width="50" height="50" relative="1" as="geometry">
            <mxPoint x="-750" y="584.4100000000001" as="sourcePoint" />
            <mxPoint x="-590" y="584.4100000000001" as="targetPoint" />
          </mxGeometry>
        </mxCell>
        <mxCell id="Yd6PEO3AKcgouXDyCz7K-27" value="" style="endArrow=none;html=1;rounded=0;exitX=0.5;exitY=0;exitDx=0;exitDy=0;" edge="1" parent="WIyWlLk6GJQsqaUBKTNV-1">
          <mxGeometry width="50" height="50" relative="1" as="geometry">
            <mxPoint x="-710" y="720" as="sourcePoint" />
            <mxPoint x="-515" y="610" as="targetPoint" />
          </mxGeometry>
        </mxCell>
        <mxCell id="Yd6PEO3AKcgouXDyCz7K-28" value=":CompanyMember" style="html=1;" vertex="1" parent="WIyWlLk6GJQsqaUBKTNV-1">
          <mxGeometry x="-770" y="720" width="110" height="50" as="geometry" />
        </mxCell>
        <mxCell id="Yd6PEO3AKcgouXDyCz7K-29" value="" style="endArrow=classic;html=1;rounded=0;" edge="1" parent="WIyWlLk6GJQsqaUBKTNV-1">
          <mxGeometry width="50" height="50" relative="1" as="geometry">
            <mxPoint x="-600" y="637.5" as="sourcePoint" />
            <mxPoint x="-655" y="672.5" as="targetPoint" />
            <Array as="points">
              <mxPoint x="-630" y="657.5" />
            </Array>
          </mxGeometry>
        </mxCell>
        <mxCell id="Yd6PEO3AKcgouXDyCz7K-30" value="1 : getJobPostingStatistics()" style="text;html=1;strokeColor=none;fillColor=none;align=center;verticalAlign=middle;whiteSpace=wrap;rounded=0;" vertex="1" parent="WIyWlLk6GJQsqaUBKTNV-1">
          <mxGeometry x="-790" y="630" width="170" height="30" as="geometry" />
        </mxCell>
        <mxCell id="Yd6PEO3AKcgouXDyCz7K-31" value=":JobPosting" style="html=1;" vertex="1" parent="WIyWlLk6GJQsqaUBKTNV-1">
          <mxGeometry x="-420" y="720" width="110" height="50" as="geometry" />
        </mxCell>
        <mxCell id="Yd6PEO3AKcgouXDyCz7K-32" value="" style="endArrow=none;html=1;rounded=0;exitX=0;exitY=0.5;exitDx=0;exitDy=0;" edge="1" parent="WIyWlLk6GJQsqaUBKTNV-1" target="Yd6PEO3AKcgouXDyCz7K-28">
          <mxGeometry width="50" height="50" relative="1" as="geometry">
            <mxPoint x="-420" y="744.4100000000001" as="sourcePoint" />
            <mxPoint x="-607" y="744.4100000000001" as="targetPoint" />
          </mxGeometry>
        </mxCell>
        <mxCell id="Yd6PEO3AKcgouXDyCz7K-33" value="" style="endArrow=classic;html=1;rounded=0;" edge="1" parent="WIyWlLk6GJQsqaUBKTNV-1">
          <mxGeometry width="50" height="50" relative="1" as="geometry">
            <mxPoint x="-610" y="760" as="sourcePoint" />
            <mxPoint x="-490" y="760" as="targetPoint" />
          </mxGeometry>
        </mxCell>
        <mxCell id="Yd6PEO3AKcgouXDyCz7K-34" value="1.1 *[For all company memberr&#39;s job postings]: getNumberOfApplicants()" style="text;html=1;strokeColor=none;fillColor=none;align=center;verticalAlign=middle;whiteSpace=wrap;rounded=0;" vertex="1" parent="WIyWlLk6GJQsqaUBKTNV-1">
          <mxGeometry x="-690" y="770" width="300" height="30" as="geometry" />
        </mxCell>
        <mxCell id="Yd6PEO3AKcgouXDyCz7K-35" value="3 :startInterface()" style="html=1;verticalAlign=bottom;endArrow=block;edgeStyle=elbowEdgeStyle;elbow=vertical;curved=0;rounded=0;" edge="1" parent="WIyWlLk6GJQsqaUBKTNV-1">
          <mxGeometry x="-0.0017" y="22" width="80" relative="1" as="geometry">
            <mxPoint x="-650" y="599.35" as="sourcePoint" />
            <mxPoint x="-720" y="599.35" as="targetPoint" />
            <mxPoint as="offset" />
          </mxGeometry>
        </mxCell>
        <mxCell id="Yd6PEO3AKcgouXDyCz7K-36" value="지원" style="shape=umlFrame;whiteSpace=wrap;html=1;pointerEvents=0;width=110;height=20;" vertex="1" parent="WIyWlLk6GJQsqaUBKTNV-1">
          <mxGeometry x="-1020" y="930" width="880" height="410" as="geometry" />
        </mxCell>
        <mxCell id="Yd6PEO3AKcgouXDyCz7K-37" value=": General &lt;br&gt;Member" style="shape=umlActor;verticalLabelPosition=bottom;verticalAlign=top;html=1;" vertex="1" parent="WIyWlLk6GJQsqaUBKTNV-1">
          <mxGeometry x="-1000" y="1010" width="30" height="60" as="geometry" />
        </mxCell>
        <mxCell id="Yd6PEO3AKcgouXDyCz7K-38" value=":JobPostingDetailsUI" style="html=1;" vertex="1" parent="WIyWlLk6GJQsqaUBKTNV-1">
          <mxGeometry x="-890" y="1020" width="150" height="50" as="geometry" />
        </mxCell>
        <mxCell id="Yd6PEO3AKcgouXDyCz7K-39" value="" style="endArrow=none;html=1;rounded=0;" edge="1" parent="WIyWlLk6GJQsqaUBKTNV-1">
          <mxGeometry width="50" height="50" relative="1" as="geometry">
            <mxPoint x="-970" y="1040" as="sourcePoint" />
            <mxPoint x="-890" y="1040" as="targetPoint" />
            <Array as="points">
              <mxPoint x="-920" y="1040" />
            </Array>
          </mxGeometry>
        </mxCell>
        <mxCell id="Yd6PEO3AKcgouXDyCz7K-40" value=":Apply" style="html=1;" vertex="1" parent="WIyWlLk6GJQsqaUBKTNV-1">
          <mxGeometry x="-580" y="1020" width="150" height="50" as="geometry" />
        </mxCell>
        <mxCell id="Yd6PEO3AKcgouXDyCz7K-41" value="" style="endArrow=classic;html=1;rounded=0;exitX=1;exitY=0.5;exitDx=0;exitDy=0;entryX=0.5;entryY=0;entryDx=0;entryDy=0;" edge="1" parent="WIyWlLk6GJQsqaUBKTNV-1" source="Yd6PEO3AKcgouXDyCz7K-23" target="Yd6PEO3AKcgouXDyCz7K-23">
          <mxGeometry width="50" height="50" relative="1" as="geometry">
            <mxPoint x="-440" y="640" as="sourcePoint" />
            <mxPoint x="-390" y="590" as="targetPoint" />
            <Array as="points">
              <mxPoint x="-370" y="585" />
              <mxPoint x="-370" y="520" />
              <mxPoint x="-510" y="520" />
            </Array>
          </mxGeometry>
        </mxCell>
        <mxCell id="Yd6PEO3AKcgouXDyCz7K-42" value="2 :sortJobPostingsByTask()" style="text;html=1;strokeColor=none;fillColor=none;align=center;verticalAlign=middle;whiteSpace=wrap;rounded=0;" vertex="1" parent="WIyWlLk6GJQsqaUBKTNV-1">
          <mxGeometry x="-370" y="540" width="170" height="30" as="geometry" />
        </mxCell>
        <mxCell id="Yd6PEO3AKcgouXDyCz7K-44" value="" style="endArrow=classic;html=1;rounded=0;" edge="1" parent="WIyWlLk6GJQsqaUBKTNV-1">
          <mxGeometry width="50" height="50" relative="1" as="geometry">
            <mxPoint x="-960" y="1030" as="sourcePoint" />
            <mxPoint x="-910" y="1030" as="targetPoint" />
          </mxGeometry>
        </mxCell>
        <mxCell id="Yd6PEO3AKcgouXDyCz7K-45" value="1 : apply()" style="text;html=1;strokeColor=none;fillColor=none;align=center;verticalAlign=middle;whiteSpace=wrap;rounded=0;" vertex="1" parent="WIyWlLk6GJQsqaUBKTNV-1">
          <mxGeometry x="-970" y="1000" width="70" height="20" as="geometry" />
        </mxCell>
        <mxCell id="Yd6PEO3AKcgouXDyCz7K-47" value=":JobPosting" style="html=1;" vertex="1" parent="WIyWlLk6GJQsqaUBKTNV-1">
          <mxGeometry x="-553" y="1180" width="110" height="50" as="geometry" />
        </mxCell>
        <mxCell id="Yd6PEO3AKcgouXDyCz7K-49" value="" style="endArrow=classic;html=1;rounded=0;" edge="1" parent="WIyWlLk6GJQsqaUBKTNV-1">
          <mxGeometry width="50" height="50" relative="1" as="geometry">
            <mxPoint x="-710" y="1030" as="sourcePoint" />
            <mxPoint x="-610" y="1030" as="targetPoint" />
            <Array as="points" />
          </mxGeometry>
        </mxCell>
        <mxCell id="Yd6PEO3AKcgouXDyCz7K-50" value="" style="endArrow=none;html=1;rounded=0;exitX=0;exitY=0.5;exitDx=0;exitDy=0;entryX=1;entryY=0.5;entryDx=0;entryDy=0;" edge="1" parent="WIyWlLk6GJQsqaUBKTNV-1" source="Yd6PEO3AKcgouXDyCz7K-40" target="Yd6PEO3AKcgouXDyCz7K-38">
          <mxGeometry width="50" height="50" relative="1" as="geometry">
            <mxPoint x="-410" y="754.4100000000001" as="sourcePoint" />
            <mxPoint x="-650" y="755" as="targetPoint" />
          </mxGeometry>
        </mxCell>
        <mxCell id="Yd6PEO3AKcgouXDyCz7K-54" value="1.1.1 : apply()" style="text;html=1;strokeColor=none;fillColor=none;align=center;verticalAlign=middle;whiteSpace=wrap;rounded=0;" vertex="1" parent="WIyWlLk6GJQsqaUBKTNV-1">
          <mxGeometry x="-480" y="1110" width="100" height="30" as="geometry" />
        </mxCell>
        <mxCell id="Yd6PEO3AKcgouXDyCz7K-58" value="2 :showSuccessMessage()" style="html=1;verticalAlign=bottom;endArrow=block;edgeStyle=elbowEdgeStyle;elbow=vertical;curved=0;rounded=0;" edge="1" parent="WIyWlLk6GJQsqaUBKTNV-1">
          <mxGeometry x="0.9983" y="-960" width="80" relative="1" as="geometry">
            <mxPoint x="-630" y="1060.06" as="sourcePoint" />
            <mxPoint x="-700" y="1060.06" as="targetPoint" />
            <mxPoint y="-18" as="offset" />
          </mxGeometry>
        </mxCell>
        <mxCell id="Yd6PEO3AKcgouXDyCz7K-59" value="&lt;span style=&quot;color: rgb(0, 0, 0); font-family: Helvetica; font-size: 11px; font-style: normal; font-variant-ligatures: normal; font-variant-caps: normal; font-weight: 400; letter-spacing: normal; orphans: 2; text-align: center; text-indent: 0px; text-transform: none; widows: 2; word-spacing: 0px; -webkit-text-stroke-width: 0px; background-color: rgb(255, 255, 255); text-decoration-thickness: initial; text-decoration-style: initial; text-decoration-color: initial; float: none; display: inline !important;&quot;&gt;2 :showApplySuccessMessage()&lt;/span&gt;" style="text;whiteSpace=wrap;html=1;" vertex="1" parent="WIyWlLk6GJQsqaUBKTNV-1">
          <mxGeometry x="-740" y="1061" width="170" height="40" as="geometry" />
        </mxCell>
        <mxCell id="Yd6PEO3AKcgouXDyCz7K-60" value="&lt;span style=&quot;color: rgb(0, 0, 0); font-family: Helvetica; font-size: 11px; font-style: normal; font-variant-ligatures: normal; font-variant-caps: normal; font-weight: 400; letter-spacing: normal; orphans: 2; text-align: center; text-indent: 0px; text-transform: none; widows: 2; word-spacing: 0px; -webkit-text-stroke-width: 0px; background-color: rgb(255, 255, 255); text-decoration-thickness: initial; text-decoration-style: initial; text-decoration-color: initial; float: none; display: inline !important;&quot;&gt;1.1 : apply()&lt;/span&gt;" style="text;whiteSpace=wrap;html=1;" vertex="1" parent="WIyWlLk6GJQsqaUBKTNV-1">
          <mxGeometry x="-690" y="1000" width="70" height="20" as="geometry" />
        </mxCell>
        <mxCell id="Yd6PEO3AKcgouXDyCz7K-66" value="지원 상세정보 페이지 제공" style="shape=umlFrame;whiteSpace=wrap;html=1;pointerEvents=0;width=140;height=20;" vertex="1" parent="WIyWlLk6GJQsqaUBKTNV-1">
          <mxGeometry x="-1010" y="1420" width="880" height="410" as="geometry" />
        </mxCell>
        <mxCell id="Yd6PEO3AKcgouXDyCz7K-67" value=": General &lt;br&gt;Member" style="shape=umlActor;verticalLabelPosition=bottom;verticalAlign=top;html=1;" vertex="1" parent="WIyWlLk6GJQsqaUBKTNV-1">
          <mxGeometry x="-990" y="1480" width="30" height="60" as="geometry" />
        </mxCell>
        <mxCell id="Yd6PEO3AKcgouXDyCz7K-68" value=":JobPostingListUI" style="html=1;" vertex="1" parent="WIyWlLk6GJQsqaUBKTNV-1">
          <mxGeometry x="-880" y="1490" width="150" height="50" as="geometry" />
        </mxCell>
        <mxCell id="Yd6PEO3AKcgouXDyCz7K-69" value=":ShowJobPostingDetails" style="html=1;" vertex="1" parent="WIyWlLk6GJQsqaUBKTNV-1">
          <mxGeometry x="-570" y="1490" width="150" height="50" as="geometry" />
        </mxCell>
        <mxCell id="Yd6PEO3AKcgouXDyCz7K-70" value=":JobPostingDetailsUI" style="html=1;" vertex="1" parent="WIyWlLk6GJQsqaUBKTNV-1">
          <mxGeometry x="-880" y="1650" width="150" height="50" as="geometry" />
        </mxCell>
        <mxCell id="Yd6PEO3AKcgouXDyCz7K-71" value="" style="endArrow=none;html=1;rounded=0;" edge="1" parent="WIyWlLk6GJQsqaUBKTNV-1">
          <mxGeometry width="50" height="50" relative="1" as="geometry">
            <mxPoint x="-960" y="1514.41" as="sourcePoint" />
            <mxPoint x="-880" y="1514.41" as="targetPoint" />
            <Array as="points">
              <mxPoint x="-910" y="1514.41" />
            </Array>
          </mxGeometry>
        </mxCell>
        <mxCell id="Yd6PEO3AKcgouXDyCz7K-72" value="" style="endArrow=none;html=1;rounded=0;exitX=0;exitY=0.5;exitDx=0;exitDy=0;entryX=1;entryY=0.5;entryDx=0;entryDy=0;" edge="1" parent="WIyWlLk6GJQsqaUBKTNV-1">
          <mxGeometry width="50" height="50" relative="1" as="geometry">
            <mxPoint x="-570" y="1514.41" as="sourcePoint" />
            <mxPoint x="-730" y="1514.41" as="targetPoint" />
          </mxGeometry>
        </mxCell>
        <mxCell id="Yd6PEO3AKcgouXDyCz7K-73" value="1 : selectJobPosting()" style="text;html=1;strokeColor=none;fillColor=none;align=center;verticalAlign=middle;whiteSpace=wrap;rounded=0;" vertex="1" parent="WIyWlLk6GJQsqaUBKTNV-1">
          <mxGeometry x="-950" y="1460" width="70" height="20" as="geometry" />
        </mxCell>
        <mxCell id="Yd6PEO3AKcgouXDyCz7K-75" value="" style="endArrow=classic;html=1;rounded=0;" edge="1" parent="WIyWlLk6GJQsqaUBKTNV-1">
          <mxGeometry width="50" height="50" relative="1" as="geometry">
            <mxPoint x="-940" y="1500" as="sourcePoint" />
            <mxPoint x="-890" y="1500" as="targetPoint" />
          </mxGeometry>
        </mxCell>
        <mxCell id="Yd6PEO3AKcgouXDyCz7K-76" value="1.1 :showJobPostingDetails()" style="text;html=1;strokeColor=none;fillColor=none;align=center;verticalAlign=middle;whiteSpace=wrap;rounded=0;" vertex="1" parent="WIyWlLk6GJQsqaUBKTNV-1">
          <mxGeometry x="-730" y="1470" width="170" height="20" as="geometry" />
        </mxCell>
        <mxCell id="Yd6PEO3AKcgouXDyCz7K-77" style="edgeStyle=orthogonalEdgeStyle;rounded=0;orthogonalLoop=1;jettySize=auto;html=1;exitX=0.5;exitY=1;exitDx=0;exitDy=0;" edge="1" parent="WIyWlLk6GJQsqaUBKTNV-1" source="Yd6PEO3AKcgouXDyCz7K-76" target="Yd6PEO3AKcgouXDyCz7K-76">
          <mxGeometry relative="1" as="geometry" />
        </mxCell>
        <mxCell id="Yd6PEO3AKcgouXDyCz7K-78" value="" style="endArrow=classic;html=1;rounded=0;" edge="1" parent="WIyWlLk6GJQsqaUBKTNV-1">
          <mxGeometry width="50" height="50" relative="1" as="geometry">
            <mxPoint x="-700" y="1500" as="sourcePoint" />
            <mxPoint x="-600" y="1500" as="targetPoint" />
            <Array as="points" />
          </mxGeometry>
        </mxCell>
        <mxCell id="Yd6PEO3AKcgouXDyCz7K-80" value=":JobPosting" style="html=1;" vertex="1" parent="WIyWlLk6GJQsqaUBKTNV-1">
          <mxGeometry x="-550" y="1650" width="110" height="50" as="geometry" />
        </mxCell>
        <mxCell id="Yd6PEO3AKcgouXDyCz7K-81" value="" style="endArrow=none;html=1;rounded=0;exitX=0.574;exitY=-0.065;exitDx=0;exitDy=0;exitPerimeter=0;" edge="1" parent="WIyWlLk6GJQsqaUBKTNV-1" source="Yd6PEO3AKcgouXDyCz7K-80">
          <mxGeometry width="50" height="50" relative="1" as="geometry">
            <mxPoint x="-620" y="1661" as="sourcePoint" />
            <mxPoint x="-485" y="1540" as="targetPoint" />
          </mxGeometry>
        </mxCell>
        <mxCell id="Yd6PEO3AKcgouXDyCz7K-83" value="" style="endArrow=classic;html=1;rounded=0;entryX=0.831;entryY=-0.112;entryDx=0;entryDy=0;entryPerimeter=0;" edge="1" parent="WIyWlLk6GJQsqaUBKTNV-1" target="Yd6PEO3AKcgouXDyCz7K-80">
          <mxGeometry width="50" height="50" relative="1" as="geometry">
            <mxPoint x="-459" y="1560" as="sourcePoint" />
            <mxPoint x="-483" y="1631.5" as="targetPoint" />
            <Array as="points">
              <mxPoint x="-459" y="1600" />
            </Array>
          </mxGeometry>
        </mxCell>
        <mxCell id="Yd6PEO3AKcgouXDyCz7K-85" value="1.1.1 : getCompanyName()" style="text;html=1;strokeColor=none;fillColor=none;align=center;verticalAlign=middle;whiteSpace=wrap;rounded=0;" vertex="1" parent="WIyWlLk6GJQsqaUBKTNV-1">
          <mxGeometry x="-443" y="1560" width="170" height="20" as="geometry" />
        </mxCell>
        <mxCell id="Yd6PEO3AKcgouXDyCz7K-86" value="1.1.2 : getTask()" style="text;html=1;strokeColor=none;fillColor=none;align=center;verticalAlign=middle;whiteSpace=wrap;rounded=0;" vertex="1" parent="WIyWlLk6GJQsqaUBKTNV-1">
          <mxGeometry x="-473" y="1580" width="170" height="20" as="geometry" />
        </mxCell>
        <mxCell id="Yd6PEO3AKcgouXDyCz7K-87" value="1.1.3 : getNumberOfPeople()" style="text;html=1;strokeColor=none;fillColor=none;align=center;verticalAlign=middle;whiteSpace=wrap;rounded=0;" vertex="1" parent="WIyWlLk6GJQsqaUBKTNV-1">
          <mxGeometry x="-440" y="1600" width="170" height="20" as="geometry" />
        </mxCell>
        <mxCell id="Yd6PEO3AKcgouXDyCz7K-88" value="1.1.4 : getDeadline()" style="text;html=1;strokeColor=none;fillColor=none;align=center;verticalAlign=middle;whiteSpace=wrap;rounded=0;" vertex="1" parent="WIyWlLk6GJQsqaUBKTNV-1">
          <mxGeometry x="-460" y="1615" width="170" height="20" as="geometry" />
        </mxCell>
        <mxCell id="Yd6PEO3AKcgouXDyCz7K-90" value="" style="endArrow=classic;html=1;rounded=0;" edge="1" parent="WIyWlLk6GJQsqaUBKTNV-1">
          <mxGeometry width="50" height="50" relative="1" as="geometry">
            <mxPoint x="-650" y="1580" as="sourcePoint" />
            <mxPoint x="-730" y="1610" as="targetPoint" />
          </mxGeometry>
        </mxCell>
        <mxCell id="Yd6PEO3AKcgouXDyCz7K-91" value="" style="endArrow=none;html=1;rounded=0;exitX=0.645;exitY=-0.018;exitDx=0;exitDy=0;exitPerimeter=0;" edge="1" parent="WIyWlLk6GJQsqaUBKTNV-1" source="Yd6PEO3AKcgouXDyCz7K-70">
          <mxGeometry width="50" height="50" relative="1" as="geometry">
            <mxPoint x="-535" y="1590" as="sourcePoint" />
            <mxPoint x="-485" y="1540" as="targetPoint" />
          </mxGeometry>
        </mxCell>
        <mxCell id="Yd6PEO3AKcgouXDyCz7K-92" value="2 : startInterface()" style="text;html=1;strokeColor=none;fillColor=none;align=center;verticalAlign=middle;whiteSpace=wrap;rounded=0;" vertex="1" parent="WIyWlLk6GJQsqaUBKTNV-1">
          <mxGeometry x="-800" y="1570" width="130" height="20" as="geometry" />
        </mxCell>
        <mxCell id="Yd6PEO3AKcgouXDyCz7K-93" value="" style="endArrow=none;html=1;rounded=0;exitX=0.598;exitY=-0.065;exitDx=0;exitDy=0;exitPerimeter=0;" edge="1" parent="WIyWlLk6GJQsqaUBKTNV-1" source="Yd6PEO3AKcgouXDyCz7K-70" target="Yd6PEO3AKcgouXDyCz7K-67">
          <mxGeometry width="50" height="50" relative="1" as="geometry">
            <mxPoint x="-773" y="1659" as="sourcePoint" />
            <mxPoint x="-475" y="1550" as="targetPoint" />
          </mxGeometry>
        </mxCell>
        <mxCell id="Yd6PEO3AKcgouXDyCz7K-94" value="" style="endArrow=none;html=1;rounded=0;exitX=0.574;exitY=-0.065;exitDx=0;exitDy=0;exitPerimeter=0;" edge="1" parent="WIyWlLk6GJQsqaUBKTNV-1">
          <mxGeometry width="50" height="50" relative="1" as="geometry">
            <mxPoint x="-506" y="1178.5" as="sourcePoint" />
            <mxPoint x="-504" y="1071.5" as="targetPoint" />
          </mxGeometry>
        </mxCell>
        <mxCell id="Yd6PEO3AKcgouXDyCz7K-96" value="" style="endArrow=classic;html=1;rounded=0;entryX=0.831;entryY=-0.112;entryDx=0;entryDy=0;entryPerimeter=0;" edge="1" parent="WIyWlLk6GJQsqaUBKTNV-1">
          <mxGeometry width="50" height="50" relative="1" as="geometry">
            <mxPoint x="-480" y="1085" as="sourcePoint" />
            <mxPoint x="-480" y="1169" as="targetPoint" />
            <Array as="points">
              <mxPoint x="-480" y="1125" />
            </Array>
          </mxGeometry>
        </mxCell>
        <mxCell id="Yd6PEO3AKcgouXDyCz7K-97" value="&lt;p style=&quot;margin:0px;margin-top:4px;text-align:center;&quot;&gt;&lt;i&gt;&amp;lt;&amp;lt;boundary&amp;gt;&amp;gt;&lt;/i&gt;&lt;br&gt;&lt;b&gt;User Interface::ShowClosedJobPostingsUI&lt;/b&gt;&lt;/p&gt;&lt;hr size=&quot;1&quot;&gt;&lt;p style=&quot;margin:0px;margin-left:4px;&quot;&gt;&lt;br&gt;&lt;/p&gt;&lt;hr size=&quot;1&quot;&gt;&lt;p style=&quot;margin:0px;margin-left:4px;&quot;&gt;startInterface()&lt;/p&gt;" style="verticalAlign=top;align=left;overflow=fill;fontSize=12;fontFamily=Helvetica;html=1;whiteSpace=wrap;" vertex="1" parent="WIyWlLk6GJQsqaUBKTNV-1">
          <mxGeometry x="-10" y="440" width="270" height="110" as="geometry" />
        </mxCell>
        <mxCell id="Yd6PEO3AKcgouXDyCz7K-98" value="&lt;p style=&quot;margin:0px;margin-top:4px;text-align:center;&quot;&gt;&lt;i&gt;&amp;lt;&amp;lt;control&amp;gt;&amp;gt;&lt;/i&gt;&lt;br&gt;&lt;b&gt;Control::ShowClosedJobPostings&lt;/b&gt;&lt;/p&gt;&lt;hr size=&quot;1&quot;&gt;&lt;p style=&quot;margin:0px;margin-left:4px;&quot;&gt;&lt;br&gt;&lt;/p&gt;&lt;hr size=&quot;1&quot;&gt;&lt;p style=&quot;margin:0px;margin-left:4px;&quot;&gt;&lt;br&gt;&lt;/p&gt;&lt;p style=&quot;margin:0px;margin-left:4px;&quot;&gt;&lt;br&gt;&lt;/p&gt;" style="verticalAlign=top;align=left;overflow=fill;fontSize=12;fontFamily=Helvetica;html=1;whiteSpace=wrap;" vertex="1" parent="WIyWlLk6GJQsqaUBKTNV-1">
          <mxGeometry x="380" y="440" width="240" height="110" as="geometry" />
        </mxCell>
        <mxCell id="Yd6PEO3AKcgouXDyCz7K-101" value="&lt;p style=&quot;margin:0px;margin-top:4px;text-align:center;&quot;&gt;&lt;i&gt;&amp;lt;&amp;lt;entity&amp;gt;&amp;gt;&lt;/i&gt;&lt;br&gt;&lt;b&gt;CompanyMember&lt;/b&gt;&lt;/p&gt;&lt;hr size=&quot;1&quot;&gt;&lt;p style=&quot;margin:0px;margin-left:4px;&quot;&gt;&lt;br&gt;&lt;/p&gt;&lt;hr size=&quot;1&quot;&gt;&lt;p style=&quot;margin:0px;margin-left:4px;&quot;&gt;&lt;span style=&quot;background-color: initial;&quot;&gt;getClosedJobPostingDetails()&lt;/span&gt;&lt;br&gt;&lt;/p&gt;&lt;p style=&quot;margin:0px;margin-left:4px;&quot;&gt;&lt;span style=&quot;background-color: initial;&quot;&gt;getJobPostingStatistics()&lt;/span&gt;&lt;/p&gt;" style="verticalAlign=top;align=left;overflow=fill;fontSize=12;fontFamily=Helvetica;html=1;whiteSpace=wrap;" vertex="1" parent="WIyWlLk6GJQsqaUBKTNV-1">
          <mxGeometry x="420" y="10" width="240" height="120" as="geometry" />
        </mxCell>
        <mxCell id="Yd6PEO3AKcgouXDyCz7K-102" value="&lt;p style=&quot;margin:0px;margin-top:4px;text-align:center;&quot;&gt;&lt;i&gt;&amp;lt;&amp;lt;entity&amp;gt;&amp;gt;&lt;/i&gt;&lt;br&gt;&lt;b&gt;JobPosting&lt;/b&gt;&lt;/p&gt;&lt;hr size=&quot;1&quot;&gt;&lt;p style=&quot;margin:0px;margin-left:4px;&quot;&gt;&lt;br&gt;&lt;/p&gt;&lt;hr size=&quot;1&quot;&gt;&lt;p style=&quot;margin:0px;margin-left:4px;&quot;&gt;getTask()&lt;/p&gt;&lt;p style=&quot;margin:0px;margin-left:4px;&quot;&gt;getDeadline()&lt;/p&gt;&lt;p style=&quot;margin:0px;margin-left:4px;&quot;&gt;getNumberOfPeopleHiring()&lt;/p&gt;&lt;p style=&quot;margin:0px;margin-left:4px;&quot;&gt;getCompanyName()&lt;/p&gt;&lt;p style=&quot;margin:0px;margin-left:4px;&quot;&gt;getNumberOfApplicants()&lt;/p&gt;&lt;p style=&quot;margin:0px;margin-left:4px;&quot;&gt;apply()&lt;/p&gt;&lt;p style=&quot;margin:0px;margin-left:4px;&quot;&gt;&lt;br&gt;&lt;/p&gt;&lt;p style=&quot;margin:0px;margin-left:4px;&quot;&gt;&lt;br&gt;&lt;/p&gt;" style="verticalAlign=top;align=left;overflow=fill;fontSize=12;fontFamily=Helvetica;html=1;whiteSpace=wrap;" vertex="1" parent="WIyWlLk6GJQsqaUBKTNV-1">
          <mxGeometry x="160" y="170" width="240" height="190" as="geometry" />
        </mxCell>
        <mxCell id="Yd6PEO3AKcgouXDyCz7K-103" value="&lt;p style=&quot;margin:0px;margin-top:4px;text-align:center;&quot;&gt;&lt;i&gt;&amp;lt;&amp;lt;entity&amp;gt;&amp;gt;&lt;/i&gt;&lt;br&gt;&lt;b&gt;GeneralMember&lt;/b&gt;&lt;/p&gt;&lt;hr size=&quot;1&quot;&gt;&lt;p style=&quot;margin:0px;margin-left:4px;&quot;&gt;&lt;br&gt;&lt;/p&gt;&lt;hr size=&quot;1&quot;&gt;&lt;p style=&quot;margin:0px;margin-left:4px;&quot;&gt;&lt;br&gt;&lt;/p&gt;&lt;p style=&quot;margin:0px;margin-left:4px;&quot;&gt;&lt;br&gt;&lt;/p&gt;" style="verticalAlign=top;align=left;overflow=fill;fontSize=12;fontFamily=Helvetica;html=1;whiteSpace=wrap;" vertex="1" parent="WIyWlLk6GJQsqaUBKTNV-1">
          <mxGeometry x="-80" y="20" width="240" height="110" as="geometry" />
        </mxCell>
        <mxCell id="Yd6PEO3AKcgouXDyCz7K-106" value="1.1 :getClosedJobPostingDetails()" style="text;html=1;strokeColor=none;fillColor=none;align=center;verticalAlign=middle;whiteSpace=wrap;rounded=0;" vertex="1" parent="WIyWlLk6GJQsqaUBKTNV-1">
          <mxGeometry x="-770" y="170" width="180" height="30" as="geometry" />
        </mxCell>
        <mxCell id="Yd6PEO3AKcgouXDyCz7K-108" value=":CompanyMember" style="html=1;" vertex="1" parent="WIyWlLk6GJQsqaUBKTNV-1">
          <mxGeometry x="-690" y="240" width="110" height="50" as="geometry" />
        </mxCell>
        <mxCell id="Yd6PEO3AKcgouXDyCz7K-110" value="" style="endArrow=none;html=1;rounded=0;exitX=0.5;exitY=0;exitDx=0;exitDy=0;" edge="1" parent="WIyWlLk6GJQsqaUBKTNV-1" source="Yd6PEO3AKcgouXDyCz7K-108">
          <mxGeometry width="50" height="50" relative="1" as="geometry">
            <mxPoint x="-700" y="260" as="sourcePoint" />
            <mxPoint x="-505" y="150" as="targetPoint" />
          </mxGeometry>
        </mxCell>
        <mxCell id="Yd6PEO3AKcgouXDyCz7K-111" value="" style="endArrow=classic;html=1;rounded=0;" edge="1" parent="WIyWlLk6GJQsqaUBKTNV-1">
          <mxGeometry width="50" height="50" relative="1" as="geometry">
            <mxPoint x="-560" y="170" as="sourcePoint" />
            <mxPoint x="-615" y="205" as="targetPoint" />
            <Array as="points">
              <mxPoint x="-590" y="190" />
            </Array>
          </mxGeometry>
        </mxCell>
        <mxCell id="Yd6PEO3AKcgouXDyCz7K-112" value="2 : startInterface()" style="html=1;verticalAlign=bottom;endArrow=block;edgeStyle=elbowEdgeStyle;elbow=vertical;curved=0;rounded=0;" edge="1" parent="WIyWlLk6GJQsqaUBKTNV-1">
          <mxGeometry x="-0.0017" y="22" width="80" relative="1" as="geometry">
            <mxPoint x="-645" y="140.23000000000002" as="sourcePoint" />
            <mxPoint x="-715" y="140.23000000000002" as="targetPoint" />
            <mxPoint as="offset" />
          </mxGeometry>
        </mxCell>
        <mxCell id="Yd6PEO3AKcgouXDyCz7K-114" value="&lt;p style=&quot;margin:0px;margin-top:4px;text-align:center;&quot;&gt;&lt;i&gt;&amp;lt;&amp;lt;boundary&amp;gt;&amp;gt;&lt;/i&gt;&lt;br&gt;&lt;b&gt;User Interface::ShowJobPostingStatisticsUI&lt;/b&gt;&lt;/p&gt;&lt;hr size=&quot;1&quot;&gt;&lt;p style=&quot;margin:0px;margin-left:4px;&quot;&gt;&lt;br&gt;&lt;/p&gt;&lt;hr size=&quot;1&quot;&gt;&lt;p style=&quot;margin:0px;margin-left:4px;&quot;&gt;startInterface()&lt;/p&gt;" style="verticalAlign=top;align=left;overflow=fill;fontSize=12;fontFamily=Helvetica;html=1;whiteSpace=wrap;" vertex="1" parent="WIyWlLk6GJQsqaUBKTNV-1">
          <mxGeometry x="-10" y="600" width="270" height="110" as="geometry" />
        </mxCell>
        <mxCell id="Yd6PEO3AKcgouXDyCz7K-115" value="&lt;p style=&quot;margin:0px;margin-top:4px;text-align:center;&quot;&gt;&lt;i&gt;&amp;lt;&amp;lt;control&amp;gt;&amp;gt;&lt;/i&gt;&lt;br&gt;&lt;b&gt;Control::ShowJobPostingStatistics&lt;/b&gt;&lt;/p&gt;&lt;hr size=&quot;1&quot;&gt;&lt;p style=&quot;margin:0px;margin-left:4px;&quot;&gt;&lt;br&gt;&lt;/p&gt;&lt;hr size=&quot;1&quot;&gt;&lt;p style=&quot;margin:0px;margin-left:4px;&quot;&gt;sortJobPostingsByTask()&lt;/p&gt;&lt;p style=&quot;margin:0px;margin-left:4px;&quot;&gt;&lt;br&gt;&lt;/p&gt;" style="verticalAlign=top;align=left;overflow=fill;fontSize=12;fontFamily=Helvetica;html=1;whiteSpace=wrap;" vertex="1" parent="WIyWlLk6GJQsqaUBKTNV-1">
          <mxGeometry x="380" y="600" width="240" height="110" as="geometry" />
        </mxCell>
        <mxCell id="Yd6PEO3AKcgouXDyCz7K-116" value="&lt;p style=&quot;margin:0px;margin-top:4px;text-align:center;&quot;&gt;&lt;i&gt;&amp;lt;&amp;lt;boundary&amp;gt;&amp;gt;&lt;/i&gt;&lt;br&gt;&lt;b&gt;User Interface::JobPostingDetailsUI&lt;/b&gt;&lt;/p&gt;&lt;hr size=&quot;1&quot;&gt;&lt;p style=&quot;margin:0px;margin-left:4px;&quot;&gt;&lt;br&gt;&lt;/p&gt;&lt;hr size=&quot;1&quot;&gt;&lt;p style=&quot;margin:0px;margin-left:4px;&quot;&gt;showApplySuccessMessage()&lt;/p&gt;&lt;p style=&quot;margin:0px;margin-left:4px;&quot;&gt;apply()&lt;/p&gt;&lt;p style=&quot;margin:0px;margin-left:4px;&quot;&gt;startInterface()&lt;/p&gt;" style="verticalAlign=top;align=left;overflow=fill;fontSize=12;fontFamily=Helvetica;html=1;whiteSpace=wrap;" vertex="1" parent="WIyWlLk6GJQsqaUBKTNV-1">
          <mxGeometry x="-20" y="790" width="270" height="130" as="geometry" />
        </mxCell>
        <mxCell id="Yd6PEO3AKcgouXDyCz7K-118" value="&lt;p style=&quot;margin:0px;margin-top:4px;text-align:center;&quot;&gt;&lt;i&gt;&amp;lt;&amp;lt;control&amp;gt;&amp;gt;&lt;/i&gt;&lt;br&gt;&lt;b&gt;Control::Apply&lt;/b&gt;&lt;/p&gt;&lt;hr size=&quot;1&quot;&gt;&lt;p style=&quot;margin:0px;margin-left:4px;&quot;&gt;&lt;br&gt;&lt;/p&gt;apply()&lt;br&gt;&lt;p style=&quot;margin:0px;margin-left:4px;&quot;&gt;&lt;br&gt;&lt;/p&gt;" style="verticalAlign=top;align=left;overflow=fill;fontSize=12;fontFamily=Helvetica;html=1;whiteSpace=wrap;" vertex="1" parent="WIyWlLk6GJQsqaUBKTNV-1">
          <mxGeometry x="380" y="790" width="240" height="110" as="geometry" />
        </mxCell>
        <mxCell id="Yd6PEO3AKcgouXDyCz7K-119" value="&lt;p style=&quot;margin:0px;margin-top:4px;text-align:center;&quot;&gt;&lt;i&gt;&amp;lt;&amp;lt;boundary&amp;gt;&amp;gt;&lt;/i&gt;&lt;br&gt;&lt;b&gt;User Interface::JobPostingListUI&lt;/b&gt;&lt;/p&gt;&lt;hr size=&quot;1&quot;&gt;&lt;p style=&quot;margin:0px;margin-left:4px;&quot;&gt;&lt;br&gt;&lt;/p&gt;&lt;hr size=&quot;1&quot;&gt;&lt;p style=&quot;margin:0px;margin-left:4px;&quot;&gt;&lt;span style=&quot;background-color: initial;&quot;&gt;selectJobPosting()&lt;/span&gt;&lt;br&gt;&lt;/p&gt;" style="verticalAlign=top;align=left;overflow=fill;fontSize=12;fontFamily=Helvetica;html=1;whiteSpace=wrap;" vertex="1" parent="WIyWlLk6GJQsqaUBKTNV-1">
          <mxGeometry x="-20" y="975" width="270" height="130" as="geometry" />
        </mxCell>
        <mxCell id="Yd6PEO3AKcgouXDyCz7K-120" value="&lt;p style=&quot;margin:0px;margin-top:4px;text-align:center;&quot;&gt;&lt;i&gt;&amp;lt;&amp;lt;control&amp;gt;&amp;gt;&lt;/i&gt;&lt;br&gt;&lt;b&gt;Control::ShowJobPostingDetails&lt;/b&gt;&lt;/p&gt;&lt;hr size=&quot;1&quot;&gt;&lt;p style=&quot;margin:0px;margin-left:4px;&quot;&gt;&lt;/p&gt;showJobPostingDetails()&lt;br&gt;&lt;br&gt;&lt;br&gt;&lt;p style=&quot;margin:0px;margin-left:4px;&quot;&gt;&lt;br&gt;&lt;/p&gt;" style="verticalAlign=top;align=left;overflow=fill;fontSize=12;fontFamily=Helvetica;html=1;whiteSpace=wrap;" vertex="1" parent="WIyWlLk6GJQsqaUBKTNV-1">
          <mxGeometry x="380" y="975" width="240" height="110" as="geometry" />
        </mxCell>
      </root>
    </mxGraphModel>
  </diagram>
</mxfile>
